<svg xmlns="http://www.w3.org/2000/svg" xmlns:xlink="http://www.w3.org/1999/xlink" width="31.16" height="20.176" viewBox="0 0 31.16 30.176"><defs><clipPath id="a"><rect width="31.16" height="30.176" transform="translate(4.92 5.412)" fill="#fff"/></clipPath></defs><g transform="translate(-4.92 -5.412)" clip-path="url(#a)"><path d="M34.022,28.665a.543.543,0,0,1-.538.592H7.469a.543.543,0,0,1-.538-.59L8.8,5.912a.542.542,0,0,1,.538-.5H31.543a.542.542,0,0,1,.538.5Z" fill="#16aa52"/><path d="M36.1,34.6a.679.679,0,0,1-.672.738H5.594a.678.678,0,0,1-.672-.735L7.064,7.347a.677.677,0,0,1,.672-.627H33.2a.677.677,0,0,1,.672.625Z" transform="translate(-0.034 1.173)" fill="#1dd266"/><path d="M19.923,26.7c-3.883,0-7.042-3.832-7.042-8.542a.44.44,0,1,1,.88,0c0,4.22,2.764,7.654,6.163,7.654s6.162-3.434,6.162-7.654a.44.44,0,1,1,.88,0C26.965,22.863,23.806,26.7,19.923,26.7Z" fill="#fff"/><path d="M24.258,18.034a.436.436,0,0,1-.311-.13.448.448,0,0,1,0-.628l2.279-2.3a.437.437,0,0,1,.622,0l2.257,2.28a.448.448,0,0,1,0,.628.437.437,0,0,1-.622,0l-1.946-1.966L24.569,17.9A.436.436,0,0,1,24.258,18.034Z" fill="#fff"/></g></svg>