<svg xmlns="http://www.w3.org/2000/svg" width="20" height="18" viewBox="0 0 20 18"><g transform="translate(0 -1.169)"><path d="M19.561,4.874a2.06,2.06,0,0,0-1.579-.745H5.159l-.4-1.49A2.009,2.009,0,0,0,2.8,1.169H.653A.642.642,0,0,0,0,1.793a.642.642,0,0,0,.653.625H2.8a.69.69,0,0,1,.674.5l2.569,9.786A2.009,2.009,0,0,0,8,14.178h8.4a1.991,1.991,0,0,0,1.958-1.47l1.579-6.2a1.786,1.786,0,0,0-.379-1.632Zm-.9,1.349-1.579,6.2a.691.691,0,0,1-.674.5H8a.69.69,0,0,1-.674-.5L5.5,5.4H17.983a.71.71,0,0,1,.548.262.612.612,0,0,1,.126.563Z" fill="#43464e"/><path d="M8.444,14.982a2.1,2.1,0,1,0,2.19,2.094,2.155,2.155,0,0,0-2.19-2.094Zm0,2.92a.827.827,0,1,1,.864-.826A.864.864,0,0,1,8.444,17.9Z" fill="#43464e"/><path d="M15.688,14.981a2.1,2.1,0,1,0,2.19,2.094A2.155,2.155,0,0,0,15.688,14.981Zm0,2.92a.827.827,0,1,1,.864-.826A.863.863,0,0,1,15.688,17.9Z" fill="#43464e"/></g></svg>