<svg xmlns="http://www.w3.org/2000/svg" width="24" height="21.6" viewBox="0 0 24 21.6"><g transform="translate(0 -1.403)"><path d="M23.474,5.848a2.472,2.472,0,0,0-1.9-.894H6.191l-.48-1.788A2.411,2.411,0,0,0,3.361,1.4H.784A.771.771,0,0,0,0,2.152.771.771,0,0,0,.784,2.9H3.361a.829.829,0,0,1,.808.6L7.252,15.249A2.411,2.411,0,0,0,9.6,17.014H19.683a2.39,2.39,0,0,0,2.35-1.764l1.9-7.442a2.143,2.143,0,0,0-.455-1.959ZM22.388,7.467l-1.9,7.442a.829.829,0,0,1-.808.6H9.6a.828.828,0,0,1-.808-.6L6.6,6.477H21.58a.853.853,0,0,1,.657.314.735.735,0,0,1,.151.676Z" fill="#fff"/><path d="M10.133,17.978a2.515,2.515,0,1,0,2.627,2.513,2.586,2.586,0,0,0-2.627-2.513Zm0,3.5a.992.992,0,1,1,1.036-.991A1.036,1.036,0,0,1,10.133,21.481Z" fill="#fff"/><path d="M18.825,17.978a2.515,2.515,0,1,0,2.627,2.512A2.586,2.586,0,0,0,18.825,17.978Zm0,3.5a.992.992,0,1,1,1.036-.991A1.035,1.035,0,0,1,18.825,21.482Z" fill="#fff"/></g></svg>